<?xml version="1.0" standalone="no"?>
<!DOCTYPE svg PUBLIC "-//W3C//DTD SVG 20010904//EN"
 "http://www.w3.org/TR/2001/REC-SVG-20010904/DTD/svg10.dtd">
<svg version="1.0" xmlns="http://www.w3.org/2000/svg"
 width="512.000000pt" height="512.000000pt" viewBox="0 0 512.000000 512.000000"
 preserveAspectRatio="xMidYMid meet">
<metadata>
Created by potrace 1.14, written by Peter Selinger 2001-2017
</metadata>
<g transform="translate(0.000000,512.000000) scale(0.100000,-0.100000)"
fill="#000000" stroke="none">
<path d="M2454 5097 c-156 -75 -197 -272 -83 -402 18 -20 46 -43 63 -52 17 -9
33 -19 36 -24 3 -4 5 -47 5 -95 -1 -68 -4 -88 -15 -89 -8 -1 -51 -5 -95 -9
-44 -4 -110 -14 -148 -22 -38 -8 -72 -14 -76 -14 -5 0 -8 56 -8 124 0 70 -5
143 -12 169 -22 78 -101 154 -181 173 -19 4 -101 8 -182 8 l-147 1 -29 45
c-107 169 -351 161 -445 -15 -28 -53 -30 -173 -4 -226 76 -152 278 -192 402
-78 23 22 48 53 55 69 14 34 4 32 181 32 132 0 160 -7 180 -44 14 -26 17 -295
3 -306 -5 -5 -36 -19 -69 -32 -500 -199 -866 -562 -1071 -1065 -39 -94 -33
-91 -196 -89 -190 3 -191 4 -192 211 l-1 145 36 18 c110 56 162 198 117 317
-23 63 -96 133 -158 152 -163 49 -331 -70 -332 -235 -1 -98 45 -182 126 -229
l43 -25 -2 -137 c-1 -192 15 -254 86 -320 55 -50 112 -65 256 -66 l135 0 -6
-26 c-13 -60 -36 -223 -37 -265 -1 -25 -7 -47 -13 -49 -9 -3 -136 -1 -172 2
-6 1 -17 15 -24 31 -18 44 -96 108 -149 124 -88 25 -176 6 -245 -54 -59 -52
-80 -102 -81 -190 0 -64 4 -82 27 -121 32 -54 77 -95 128 -117 46 -19 145 -19
192 2 48 21 105 71 125 110 9 17 19 33 23 36 5 3 48 5 97 5 82 -1 88 -2 89
-21 3 -67 17 -178 30 -237 8 -38 14 -71 14 -75 0 -4 -59 -8 -131 -9 -164 -2
-213 -17 -274 -85 -58 -64 -69 -111 -70 -290 l0 -147 -45 -29 c-57 -37 -74
-56 -101 -116 -75 -170 55 -362 239 -355 177 7 296 190 229 351 -19 45 -72
105 -111 125 -17 9 -33 19 -36 23 -3 5 -4 75 -3 156 1 147 2 149 28 171 16 14
40 23 63 24 125 4 255 0 262 -7 4 -5 17 -34 28 -64 19 -54 100 -225 125 -265
7 -11 38 -59 70 -108 207 -314 541 -581 887 -709 30 -11 59 -24 64 -29 14 -12
11 -281 -3 -307 -20 -38 -48 -44 -198 -45 l-145 -2 -19 36 c-25 50 -94 107
-149 123 -158 47 -315 -59 -328 -221 -15 -194 177 -332 354 -254 60 27 79 44
116 101 l29 45 152 1 c83 1 161 4 172 7 68 17 122 57 160 117 31 49 38 92 38
233 l0 118 26 -5 c14 -2 37 -7 51 -10 44 -10 83 -16 160 -22 41 -4 82 -8 90
-9 11 -1 14 -21 15 -94 l0 -93 -36 -19 c-83 -42 -141 -148 -133 -244 5 -60 24
-103 64 -149 44 -50 98 -76 173 -83 221 -20 357 245 211 415 -20 24 -52 51
-72 61 l-36 19 -1 88 c0 49 4 92 10 96 5 4 28 8 50 8 35 0 185 21 256 36 l26
5 0 -124 c0 -72 5 -144 13 -170 16 -60 70 -121 134 -154 48 -25 59 -26 213
-27 l162 -1 29 -46 c66 -103 181 -144 301 -108 52 16 115 69 144 123 28 54 31
173 4 227 -58 117 -191 172 -316 129 -57 -19 -122 -75 -142 -121 -6 -16 -17
-29 -23 -30 -6 0 -66 -1 -133 -2 -211 -3 -215 0 -216 203 0 77 4 144 9 149 5
4 25 14 44 21 40 15 108 44 160 67 205 94 464 295 628 488 56 66 149 201 202
295 46 82 130 272 130 295 0 17 0 17 171 17 132 0 160 -7 180 -44 12 -21 19
-292 9 -308 -3 -4 -19 -14 -36 -23 -46 -24 -102 -94 -118 -147 -62 -207 150
-397 344 -309 132 60 188 205 129 338 -25 57 -42 76 -99 113 l-45 29 -1 142
c-1 165 -7 206 -39 256 -32 50 -63 77 -118 101 -41 18 -69 22 -183 23 -134 1
-135 2 -130 23 3 13 8 41 11 65 3 23 7 45 9 48 5 7 20 159 18 184 -1 20 -8 19
101 21 l89 1 18 -36 c23 -43 78 -94 125 -114 117 -48 256 0 322 113 23 39 28
58 28 122 0 64 -4 82 -27 121 -48 81 -117 125 -207 133 -92 7 -199 -51 -240
-133 l-19 -37 -84 2 c-45 1 -88 2 -94 3 -5 1 -11 20 -13 44 -3 55 -9 109 -22
182 -6 33 -12 71 -14 85 l-4 26 133 1 c155 1 212 19 271 84 60 67 67 95 69
276 l1 162 45 29 c57 37 74 56 101 116 54 122 3 266 -115 329 -54 28 -174 31
-227 4 -113 -56 -169 -187 -133 -308 16 -53 80 -131 123 -148 16 -7 31 -20 33
-29 8 -38 0 -280 -11 -300 -20 -38 -48 -44 -197 -46 -136 -1 -145 0 -150 19
-38 119 -202 434 -254 485 -3 3 -18 23 -35 45 -30 40 -67 84 -140 163 -161
174 -448 361 -695 452 -19 7 -39 17 -44 21 -14 12 -11 281 3 307 6 12 21 27
33 33 21 11 292 19 308 9 4 -3 14 -19 23 -36 24 -46 94 -103 147 -118 166 -49
328 71 329 244 2 181 -188 305 -354 231 -61 -27 -80 -44 -117 -101 l-29 -45
-147 -1 c-189 0 -230 -11 -298 -78 -64 -65 -76 -107 -77 -271 -1 -133 0 -131
-54 -116 -18 5 -60 12 -95 16 -35 4 -66 9 -69 10 -3 2 -31 5 -62 6 -31 1 -58
7 -60 13 -3 9 -1 159 2 177 0 4 14 12 31 19 38 16 95 78 116 127 20 48 21 147
2 194 -21 50 -74 106 -121 130 -23 12 -67 23 -106 25 -55 4 -74 1 -117 -19z"/>
</g>
</svg>
